<mxfile host="drawio-plugin" modified="2023-05-03T13:51:34.748Z" agent="5.0 (Macintosh; Intel Mac OS X 10_15_7) AppleWebKit/537.36 (KHTML, like Gecko) Chrome/104.0.5112.102 Safari/537.36" etag="Cva38w1hcc7R5Sj61YRj" version="20.5.3" type="embed"><diagram name="Page-1" id="ZorAxVkc9tV3lhKMBp7c"><mxGraphModel dx="612" dy="557" grid="1" gridSize="10" guides="1" tooltips="1" connect="1" arrows="1" fold="1" page="1" pageScale="1" pageWidth="850" pageHeight="1100" math="1" shadow="0"><root><mxCell id="0"/><mxCell id="1" parent="0"/><mxCell id="PJyqiNK83fNmgwTpZ4mM-4" style="edgeStyle=orthogonalEdgeStyle;rounded=0;orthogonalLoop=1;jettySize=auto;html=1;entryX=0;entryY=0.5;entryDx=0;entryDy=0;entryPerimeter=0;" parent="1" source="PJyqiNK83fNmgwTpZ4mM-2" target="PJyqiNK83fNmgwTpZ4mM-3" edge="1"><mxGeometry relative="1" as="geometry"/></mxCell><mxCell id="PJyqiNK83fNmgwTpZ4mM-2" value="" style="outlineConnect=0;dashed=0;verticalLabelPosition=bottom;verticalAlign=top;align=center;html=1;shape=mxgraph.aws3.athena;fillColor=#F58534;gradientColor=none;" parent="1" vertex="1"><mxGeometry x="150" y="340" width="76.5" height="76.5" as="geometry"/></mxCell><mxCell id="PJyqiNK83fNmgwTpZ4mM-3" value="" style="outlineConnect=0;dashed=0;verticalLabelPosition=bottom;verticalAlign=top;align=center;html=1;shape=mxgraph.aws3.elasticsearch_service;fillColor=#F58534;gradientColor=none;" parent="1" vertex="1"><mxGeometry x="350" y="335.5" width="67.5" height="81" as="geometry"/></mxCell></root></mxGraphModel></diagram></mxfile>